<svg xmlns="http://www.w3.org/2000/svg" width="1440" height="1120" viewBox="0 0 1440 1120"><title>设置 · 镜流工坊原型</title><desc>镜流工坊交互原型；原生文字与形状设计导出。示例数据，不含 Figma 自动布局与交互连线。</desc><defs></defs><rect x="0.00" y="0.00" width="1440.00" height="1120.00" rx="0.00" fill="#f5f5f1"/><g data-name="body"><rect x="0.00" y="0.00" width="1440.00" height="1120.00" rx="0.00" fill="rgb(245, 245, 241)"/><g data-name="sidebar"><rect x="0.00" y="0.00" width="220.00" height="1120.00" rx="0.00" fill="rgb(37, 41, 37)"/><g data-name="brand"><g data-name="brand-mark"><svg viewBox="0 0 36 36" fill="none" aria-hidden="true" x="27.00" y="33.63" width="36.00" height="36.00" color="rgb(225, 131, 95)" stroke="none" stroke-width="1px" stroke-linecap="butt" stroke-linejoin="miter"><path d="M9 8v20l18-10L9 8Z" fill="currentColor"></path><path d="M5 11v14M30 11v14" stroke="currentColor" stroke-width="2.5" stroke-linecap="round"></path></svg></g><g data-name="span"><text x="73.00" y="53.02" font-family="&quot;Avenir Next&quot;, &quot;PingFang SC&quot;, &quot;Noto Sans SC&quot;, sans-serif" font-size="21.00" font-weight="600" fill="rgb(242, 242, 237)" letter-spacing="1px">镜流工坊</text><g data-name="small"><text x="73.00" y="73.44" font-family="&quot;Avenir Next&quot;, &quot;PingFang SC&quot;, &quot;Noto Sans SC&quot;, sans-serif" font-size="8.00" font-weight="500" fill="rgb(146, 154, 143)" letter-spacing="2px">JINGFLOW STUDIO</text></g></g></g><g data-name="workspace-switch"><line x1="20.00" y1="105.25" x2="200.00" y2="105.25" stroke="rgb(58, 62, 56)" stroke-width="1.00"/><line x1="20.00" y1="173.84" x2="200.00" y2="173.84" stroke="rgb(58, 62, 56)" stroke-width="1.00"/><g data-name="workspace-avatar"><rect x="21.00" y="124.55" width="27.00" height="30.00" rx="6.00" fill="rgb(59, 66, 55)"/><text x="28.59" y="144.85" font-family="&quot;Avenir Next&quot;, &quot;PingFang SC&quot;, &quot;Noto Sans SC&quot;, sans-serif" font-size="14.00" font-weight="400" fill="rgb(197, 208, 187)">Q</text></g><g data-name="span"><text x="57.00" y="135.10" font-family="&quot;Avenir Next&quot;, &quot;PingFang SC&quot;, &quot;Noto Sans SC&quot;, sans-serif" font-size="11.00" font-weight="400" fill="rgb(219, 222, 216)">青序内容工作室</text><g data-name="small"><text x="57.00" y="152.51" font-family="&quot;Avenir Next&quot;, &quot;PingFang SC&quot;, &quot;Noto Sans SC&quot;, sans-serif" font-size="10.00" font-weight="400" fill="rgb(133, 142, 130)">本地工作空间</text></g></g><g data-name="workspace-local"><text x="171.02" y="142.34" font-family="&quot;Avenir Next&quot;, &quot;PingFang SC&quot;, &quot;Noto Sans SC&quot;, sans-serif" font-size="8.00" font-weight="400" fill="rgb(144, 155, 138)" letter-spacing="0.4px">LOCAL</text></g></g><g data-name="nav-label"><text x="32.00" y="213.51" font-family="&quot;Avenir Next&quot;, &quot;PingFang SC&quot;, &quot;Noto Sans SC&quot;, sans-serif" font-size="10.00" font-weight="400" fill="rgb(134, 143, 130)" letter-spacing="1.5px">创作空间</text></g><g data-name="navigation"><g data-name="nav-link "><svg viewBox="0 0 24 24" aria-hidden="true" x="34.00" y="242.24" width="18.00" height="18.00" color="rgb(174, 182, 170)" fill="none" stroke="rgb(174, 182, 170)" stroke-width="1.6px" stroke-linecap="round" stroke-linejoin="round"><rect x="3" y="3" width="7" height="7" rx="1.4"></rect><rect x="14" y="3" width="7" height="7" rx="1.4"></rect><rect x="3" y="14" width="7" height="7" rx="1.4"></rect><rect x="14" y="14" width="7" height="7" rx="1.4"></rect></svg><g data-name="span"><text x="64.00" y="256.06" font-family="&quot;Avenir Next&quot;, &quot;PingFang SC&quot;, &quot;Noto Sans SC&quot;, sans-serif" font-size="13.00" font-weight="400" fill="rgb(174, 182, 170)">工作台</text></g></g><g data-name="nav-link "><svg viewBox="0 0 24 24" aria-hidden="true" x="34.00" y="291.04" width="18.00" height="18.00" color="rgb(174, 182, 170)" fill="none" stroke="rgb(174, 182, 170)" stroke-width="1.6px" stroke-linecap="round" stroke-linejoin="round"><path d="M3 7V5a2 2 0 0 1 2-2h5l2 3h7a2 2 0 0 1 2 2v11a2 2 0 0 1-2 2H5a2 2 0 0 1-2-2V7Z"></path><path d="M3 10h18"></path></svg><g data-name="span"><text x="64.00" y="304.86" font-family="&quot;Avenir Next&quot;, &quot;PingFang SC&quot;, &quot;Noto Sans SC&quot;, sans-serif" font-size="13.00" font-weight="400" fill="rgb(174, 182, 170)">素材库</text></g></g><g data-name="nav-link "><svg viewBox="0 0 24 24" aria-hidden="true" x="34.00" y="339.84" width="18.00" height="18.00" color="rgb(174, 182, 170)" fill="none" stroke="rgb(174, 182, 170)" stroke-width="1.6px" stroke-linecap="round" stroke-linejoin="round"><rect x="4" y="3" width="16" height="18" rx="2"></rect><path d="m8 8 1 1 2-2m2 1h3m-8 5 1 1 2-2m2 1h3M8 18h8"></path></svg><g data-name="span"><text x="64.00" y="353.66" font-family="&quot;Avenir Next&quot;, &quot;PingFang SC&quot;, &quot;Noto Sans SC&quot;, sans-serif" font-size="13.00" font-weight="400" fill="rgb(174, 182, 170)">任务中心</text></g><g data-name="nav-count"><rect x="168.20" y="340.84" width="17.80" height="16.00" rx="4.00" fill="rgb(81, 87, 68)"/><text x="174.20" y="352.50" font-family="&quot;Avenir Next&quot;, &quot;PingFang SC&quot;, &quot;Noto Sans SC&quot;, sans-serif" font-size="10.00" font-weight="400" fill="rgb(212, 221, 201)">2</text></g></g><g data-name="nav-link "><svg viewBox="0 0 24 24" aria-hidden="true" x="34.00" y="388.63" width="18.00" height="18.00" color="rgb(174, 182, 170)" fill="none" stroke="rgb(174, 182, 170)" stroke-width="1.6px" stroke-linecap="round" stroke-linejoin="round"><circle cx="6" cy="6" r="3"></circle><circle cx="6" cy="18" r="3"></circle><path d="m8 8 13 13M8 16l13-13"></path></svg><g data-name="span"><text x="64.00" y="402.45" font-family="&quot;Avenir Next&quot;, &quot;PingFang SC&quot;, &quot;Noto Sans SC&quot;, sans-serif" font-size="13.00" font-weight="400" fill="rgb(174, 182, 170)">混剪工作室</text></g></g><g data-name="nav-link "><svg viewBox="0 0 24 24" aria-hidden="true" x="34.00" y="437.43" width="18.00" height="18.00" color="rgb(174, 182, 170)" fill="none" stroke="rgb(174, 182, 170)" stroke-width="1.6px" stroke-linecap="round" stroke-linejoin="round"><path d="m21 3-7 18-4-8-8-3 19-7ZM10 13l11-10"></path></svg><g data-name="span"><text x="64.00" y="451.25" font-family="&quot;Avenir Next&quot;, &quot;PingFang SC&quot;, &quot;Noto Sans SC&quot;, sans-serif" font-size="13.00" font-weight="400" fill="rgb(174, 182, 170)">成片与发布</text></g></g><g data-name="nav-divider"><rect x="32.00" y="490.83" width="156.00" height="1.00" rx="0.00" fill="rgb(58, 62, 56)"/></g><g data-name="nav-link active"><rect x="20.00" y="507.83" width="180.00" height="42.80" rx="7.00" fill="rgb(58, 63, 55)"/><svg viewBox="0 0 24 24" aria-hidden="true" x="34.00" y="520.23" width="18.00" height="18.00" color="rgb(227, 161, 124)" fill="none" stroke="rgb(227, 161, 124)" stroke-width="1.6px" stroke-linecap="round" stroke-linejoin="round"><path d="m9 3-.8 2.5L6 7l-2.5.3-1 3L4 12l-1.5 1.7 1 3L6 17l2.2 1.5L9 21h6l.8-2.5L18 17l2.5-.3 1-3L20 12l1.5-1.7-1-3L18 7l-2.2-1.5L15 3H9Z"></path><circle cx="12" cy="12" r="3"></circle></svg><g data-name="span"><text x="64.00" y="534.05" font-family="&quot;Avenir Next&quot;, &quot;PingFang SC&quot;, &quot;Noto Sans SC&quot;, sans-serif" font-size="13.00" font-weight="400" fill="rgb(255, 255, 255)">设置</text></g></g></g><g data-name="sidebar-bottom"><g data-name="local-status"><g data-name="status-dot"><rect x="27.00" y="972.91" width="5.00" height="5.00" rx="2.50" fill="rgb(159, 180, 148)"/></g><text x="39.00" y="979.07" font-family="&quot;Avenir Next&quot;, &quot;PingFang SC&quot;, &quot;Noto Sans SC&quot;, sans-serif" font-size="10.00" font-weight="400" fill="rgb(166, 176, 159)">本地引擎</text><g data-name="span"><text x="157.00" y="978.58" font-family="&quot;Avenir Next&quot;, &quot;PingFang SC&quot;, &quot;Noto Sans SC&quot;, sans-serif" font-size="9.00" font-weight="400" fill="rgb(127, 138, 120)">演示连接</text></g></g><g data-name="sidebar-help"><g data-name="span"><svg viewBox="0 0 24 24" aria-hidden="true" x="26.00" y="1008.34" width="15.00" height="15.00" color="rgb(174, 182, 170)" fill="none" stroke="rgb(174, 182, 170)" stroke-width="1.6px" stroke-linecap="round" stroke-linejoin="round"><circle cx="12" cy="12" r="9"></circle><path d="M9.5 9a2.5 2.5 0 1 1 3.5 2.3c-1 .5-1 1.2-1 2.2M12 17h.01"></path></svg></g><text x="49.00" y="1019.26" font-family="&quot;Avenir Next&quot;, &quot;PingFang SC&quot;, &quot;Noto Sans SC&quot;, sans-serif" font-size="11.00" font-weight="400" fill="rgb(174, 182, 170)">原型使用指南</text><g data-name="span"><text x="183.00" y="1019.26" font-family="&quot;Avenir Next&quot;, &quot;PingFang SC&quot;, &quot;Noto Sans SC&quot;, sans-serif" font-size="11.00" font-weight="400" fill="rgb(174, 182, 170)">↗</text></g></g><g data-name="profile"><line x1="0.00" y1="1047.00" x2="220.00" y2="1047.00" stroke="rgb(58, 62, 56)" stroke-width="1.00"/><g data-name="avatar"><rect x="20.00" y="1068.00" width="32.00" height="32.00" rx="16.00" fill="rgb(63, 72, 57)"/><rect x="20.50" y="1068.50" width="31.00" height="31.00" rx="16.00" fill="none" stroke="rgb(83, 90, 77)" stroke-width="1.00"/><text x="28.54" y="1087.66" font-family="&quot;Avenir Next&quot;, &quot;PingFang SC&quot;, &quot;Noto Sans SC&quot;, sans-serif" font-size="10.00" font-weight="400" fill="rgb(200, 213, 190)">QX</text></g><g data-name="span"><text x="61.00" y="1080.85" font-family="&quot;Avenir Next&quot;, &quot;PingFang SC&quot;, &quot;Noto Sans SC&quot;, sans-serif" font-size="11.00" font-weight="400" fill="rgb(219, 222, 216)">我的工作空间</text><g data-name="small"><text x="61.00" y="1095.97" font-family="&quot;Avenir Next&quot;, &quot;PingFang SC&quot;, &quot;Noto Sans SC&quot;, sans-serif" font-size="9.00" font-weight="400" fill="rgb(133, 142, 130)">交互设计 · v0.1</text></g></g><g data-name="profile-dot"><text x="185.91" y="1088.05" font-family="&quot;Avenir Next&quot;, &quot;PingFang SC&quot;, &quot;Noto Sans SC&quot;, sans-serif" font-size="11.00" font-weight="400" fill="rgb(138, 148, 132)">· · ·</text></g></g></g></g><g data-name="main-shell"><g data-name="topbar"><rect x="220.00" y="0.00" width="1220.00" height="70.00" rx="0.00" fill="rgb(250, 250, 247)"/><line x1="220.00" y1="70.00" x2="1440.00" y2="70.00" stroke="rgb(231, 232, 225)" stroke-width="1.00"/><g data-name="breadcrumb"><g data-name="span"><text x="258.00" y="38.55" font-family="&quot;Avenir Next&quot;, &quot;PingFang SC&quot;, &quot;Noto Sans SC&quot;, sans-serif" font-size="11.00" font-weight="400" fill="rgb(148, 152, 142)">工作空间</text></g><g data-name="slash"><text x="316.00" y="38.55" font-family="&quot;Avenir Next&quot;, &quot;PingFang SC&quot;, &quot;Noto Sans SC&quot;, sans-serif" font-size="11.00" font-weight="400" fill="rgb(201, 203, 196)">/</text></g><g data-name="breadcrumb-title"><text x="334.07" y="38.55" font-family="&quot;Avenir Next&quot;, &quot;PingFang SC&quot;, &quot;Noto Sans SC&quot;, sans-serif" font-size="11.00" font-weight="500" fill="rgb(78, 85, 75)">设置</text></g></g><g data-name="topbar-right"><g data-name="prototype-badge"><rect x="1182.90" y="22.00" width="116.60" height="25.00" rx="5.00" fill="none" stroke="rgb(227, 229, 219)" stroke-width="1.00"/><g data-name="span"><rect x="1192.40" y="32.50" width="4.00" height="4.00" rx="2.00" fill="rgb(169, 177, 149)"/></g><text x="1202.40" y="38.16" font-family="&quot;Avenir Next&quot;, &quot;PingFang SC&quot;, &quot;Noto Sans SC&quot;, sans-serif" font-size="10.00" font-weight="400" fill="rgb(122, 130, 112)">交互原型 · 示例数据</text></g><g data-name="icon-button"><g data-name="span"><svg viewBox="0 0 24 24" aria-hidden="true" x="1329.00" y="26.06" width="18.00" height="18.00" color="rgb(108, 115, 103)" fill="none" stroke="rgb(108, 115, 103)" stroke-width="1.6px" stroke-linecap="round" stroke-linejoin="round"><path d="M6 8a6 6 0 0 1 12 0c0 7 3 7 3 9H3c0-2 3-2 3-9ZM10 21h4"></path></svg></g><g data-name="notification-dot"><rect x="1342.00" y="24.50" width="4.00" height="4.00" rx="2.00" fill="rgb(206, 96, 59)"/><rect x="1342.50" y="25.00" width="3.00" height="3.00" rx="2.00" fill="none" stroke="rgb(245, 245, 241)" stroke-width="1.00"/></g></g><g data-name="top-avatar"><rect x="1376.00" y="21.50" width="26.00" height="26.00" rx="13.00" fill="rgb(229, 233, 220)"/><text x="1384.78" y="38.16" font-family="&quot;Avenir Next&quot;, &quot;PingFang SC&quot;, &quot;Noto Sans SC&quot;, sans-serif" font-size="10.00" font-weight="400" fill="rgb(102, 116, 83)">Q</text></g></g></g><g data-name="main"><g data-name="page"><g data-name="page-header"><g data-name="div"><g data-name="h1"><text x="258.00" y="131.02" font-family="&quot;Avenir Next&quot;, &quot;PingFang SC&quot;, &quot;Noto Sans SC&quot;, sans-serif" font-size="28.00" font-weight="600" fill="rgb(39, 43, 40)" letter-spacing="-0.7px">设置</text></g><g data-name="p"><text x="258.00" y="159.25" font-family="&quot;Avenir Next&quot;, &quot;PingFang SC&quot;, &quot;Noto Sans SC&quot;, sans-serif" font-size="11.00" font-weight="400" fill="rgb(126, 131, 124)">管理本地目录、处理偏好与浏览器连接。</text></g></g><g data-name="page-actions"><g data-name="button primary"><rect x="1306.00" y="114.99" width="96.00" height="36.00" rx="6.00" fill="rgb(206, 96, 59)"/><rect x="1306.50" y="115.49" width="95.00" height="35.00" rx="6.00" fill="none" stroke="rgb(206, 96, 59)" stroke-width="1.00"/><svg viewBox="0 0 24 24" aria-hidden="true" x="1321.00" y="125.49" width="15.00" height="15.00" color="rgb(255, 255, 255)" fill="none" stroke="rgb(255, 255, 255)" stroke-width="1.6px" stroke-linecap="round" stroke-linejoin="round"><path d="m5 12 4 4L20 5"></path></svg><text x="1343.00" y="137.09" font-family="&quot;Avenir Next&quot;, &quot;PingFang SC&quot;, &quot;Noto Sans SC&quot;, sans-serif" font-size="11.00" font-weight="500" fill="rgb(255, 255, 255)">保存设置</text></g></g></g><g data-name="settings-layout"><g data-name="panel"><rect x="258.00" y="189.99" width="849.00" height="649.14" rx="9.00" fill="rgb(255, 255, 255)"/><rect x="258.50" y="190.49" width="848.00" height="648.14" rx="9.00" fill="none" stroke="rgb(231, 232, 225)" stroke-width="1.00"/><g data-name="settings-group"><line x1="281.00" y1="549.95" x2="1084.00" y2="549.95" stroke="rgb(231, 232, 225)" stroke-width="1.00"/><g data-name="h2"><text x="281.00" y="229.50" font-family="&quot;Avenir Next&quot;, &quot;PingFang SC&quot;, &quot;Noto Sans SC&quot;, sans-serif" font-size="14.00" font-weight="600" fill="rgb(39, 43, 40)" letter-spacing="-0.3px">本地目录</text></g><g data-name="form-field"><g data-name="label"><text x="281.00" y="268.24" font-family="&quot;Avenir Next&quot;, &quot;PingFang SC&quot;, &quot;Noto Sans SC&quot;, sans-serif" font-size="11.00" font-weight="500" fill="rgb(93, 105, 81)">素材目录</text></g><g data-name="setting-source"><rect x="281.00" y="280.98" width="803.00" height="37.59" rx="5.00" fill="rgb(253, 253, 251)"/><rect x="281.50" y="281.48" width="802.00" height="36.59" rx="5.00" fill="none" stroke="rgb(223, 227, 214)" stroke-width="1.00"/><text x="293.00" y="301.54" font-family="&quot;Avenir Next&quot;, &quot;PingFang SC&quot;, &quot;Noto Sans SC&quot;, sans-serif" font-size="11.00" font-weight="400" fill="rgb(39, 43, 40)">~/Movies/青序素材</text></g></g><g data-name="form-field"><g data-name="label"><text x="281.00" y="351.43" font-family="&quot;Avenir Next&quot;, &quot;PingFang SC&quot;, &quot;Noto Sans SC&quot;, sans-serif" font-size="11.00" font-weight="500" fill="rgb(93, 105, 81)">处理结果目录</text></g><g data-name="setting-output"><rect x="281.00" y="364.17" width="803.00" height="37.59" rx="5.00" fill="rgb(253, 253, 251)"/><rect x="281.50" y="364.67" width="802.00" height="36.59" rx="5.00" fill="none" stroke="rgb(223, 227, 214)" stroke-width="1.00"/><text x="293.00" y="384.73" font-family="&quot;Avenir Next&quot;, &quot;PingFang SC&quot;, &quot;Noto Sans SC&quot;, sans-serif" font-size="11.00" font-weight="400" fill="rgb(39, 43, 40)">./output</text></g></g><g data-name="form-field"><g data-name="label"><text x="281.00" y="434.62" font-family="&quot;Avenir Next&quot;, &quot;PingFang SC&quot;, &quot;Noto Sans SC&quot;, sans-serif" font-size="11.00" font-weight="500" fill="rgb(93, 105, 81)">剪映草稿目录</text></g><g data-name="setting-draft"><rect x="281.00" y="447.36" width="803.00" height="37.59" rx="5.00" fill="rgb(253, 253, 251)"/><rect x="281.50" y="447.86" width="802.00" height="36.59" rx="5.00" fill="none" stroke="rgb(223, 227, 214)" stroke-width="1.00"/><text x="293.00" y="467.92" font-family="&quot;Avenir Next&quot;, &quot;PingFang SC&quot;, &quot;Noto Sans SC&quot;, sans-serif" font-size="11.00" font-weight="400" fill="rgb(39, 43, 40)">~/Movies/JianyingPro/User Data/Projects/com.lveditor.draft</text></g></g><g data-name="field-help"><text x="281.00" y="516.62" font-family="&quot;Avenir Next&quot;, &quot;PingFang SC&quot;, &quot;Noto Sans SC&quot;, sans-serif" font-size="10.00" font-weight="400" fill="rgb(153, 161, 142)">这里展示目录配置的交互，不会读取或修改你的实际目录。</text></g></g><g data-name="settings-group"><g data-name="h2"><text x="281.00" y="590.46" font-family="&quot;Avenir Next&quot;, &quot;PingFang SC&quot;, &quot;Noto Sans SC&quot;, sans-serif" font-size="14.00" font-weight="600" fill="rgb(39, 43, 40)" letter-spacing="-0.3px">处理偏好</text></g><g data-name="form-field"><g data-name="label"><text x="281.00" y="629.20" font-family="&quot;Avenir Next&quot;, &quot;PingFang SC&quot;, &quot;Noto Sans SC&quot;, sans-serif" font-size="11.00" font-weight="500" fill="rgb(93, 105, 81)">转录模型</text></g><g data-name="setting-model"><rect x="281.00" y="641.95" width="803.00" height="37.00" rx="5.00" fill="rgb(253, 253, 251)"/><rect x="281.50" y="642.45" width="802.00" height="36.00" rx="5.00" fill="none" stroke="rgb(223, 227, 214)" stroke-width="1.00"/><text x="293.00" y="662.51" font-family="&quot;Avenir Next&quot;, &quot;PingFang SC&quot;, &quot;Noto Sans SC&quot;, sans-serif" font-size="11.00" font-weight="400" fill="rgb(39, 43, 40)">small</text><path d="m1067.00,658.45 4,4 4,-4" stroke="#8b9580" stroke-width="1.3" fill="none"/></g></g><g data-name="switch-label"><g data-name="span"><text x="281.00" y="711.80" font-family="&quot;Avenir Next&quot;, &quot;PingFang SC&quot;, &quot;Noto Sans SC&quot;, sans-serif" font-size="11.00" font-weight="400" fill="rgb(39, 43, 40)">复用已有分析结果</text><g data-name="small"><text x="281.00" y="732.20" font-family="&quot;Avenir Next&quot;, &quot;PingFang SC&quot;, &quot;Noto Sans SC&quot;, sans-serif" font-size="10.00" font-weight="400" fill="rgb(151, 161, 135)">已有结果时不重复运行相同处理。</text></g></g><rect x="1053.00" y="708.74" width="31.00" height="18.00" rx="9.00" fill="#8ca17a"/><circle cx="1075.00" cy="717.74" r="6" fill="#fff"/></g><g data-name="switch-label"><g data-name="span"><text x="281.00" y="766.39" font-family="&quot;Avenir Next&quot;, &quot;PingFang SC&quot;, &quot;Noto Sans SC&quot;, sans-serif" font-size="11.00" font-weight="400" fill="rgb(39, 43, 40)">优先保留原始长镜头</text><g data-name="small"><text x="281.00" y="786.80" font-family="&quot;Avenir Next&quot;, &quot;PingFang SC&quot;, &quot;Noto Sans SC&quot;, sans-serif" font-size="10.00" font-weight="400" fill="rgb(151, 161, 135)">在原始切镜基础上进行后续处理。</text></g></g><rect x="1053.00" y="763.34" width="31.00" height="18.00" rx="9.00" fill="#8ca17a"/><circle cx="1075.00" cy="772.34" r="6" fill="#fff"/></g></g></g><g data-name="aside"><g data-name="panel"><rect x="1132.00" y="189.99" width="270.00" height="320.80" rx="9.00" fill="rgb(255, 255, 255)"/><rect x="1132.50" y="190.49" width="269.00" height="319.80" rx="9.00" fill="none" stroke="rgb(231, 232, 225)" stroke-width="1.00"/><g data-name="panel-title"><text x="1155.00" y="228.21" font-family="&quot;Avenir Next&quot;, &quot;PingFang SC&quot;, &quot;Noto Sans SC&quot;, sans-serif" font-size="13.00" font-weight="600" fill="rgb(39, 43, 40)" letter-spacing="-0.3px">连接与依赖</text><g data-name="tag"><rect x="1226.51" y="213.64" width="31.41" height="19.50" rx="4.00" fill="rgb(240, 241, 235)"/><text x="1233.51" y="227.02" font-family="&quot;Avenir Next&quot;, &quot;PingFang SC&quot;, &quot;Noto Sans SC&quot;, sans-serif" font-size="9.00" font-weight="500" fill="rgb(124, 132, 111)" letter-spacing="-0.3px">示例</text></g></g><g data-name="dependency-row"><line x1="1155.00" y1="298.29" x2="1379.00" y2="298.29" stroke="rgb(231, 232, 225)" stroke-width="1.00"/><g data-name="span"><text x="1155.00" y="279.59" font-family="&quot;Avenir Next&quot;, &quot;PingFang SC&quot;, &quot;Noto Sans SC&quot;, sans-serif" font-size="11.00" font-weight="400" fill="rgb(39, 43, 40)">本地处理引擎</text></g><g data-name="tag ready"><rect x="1320.00" y="265.79" width="59.00" height="19.50" rx="4.00" fill="rgb(237, 243, 238)"/><g data-name="tag-dot"><rect x="1327.00" y="273.54" width="4.00" height="4.00" rx="2.00" fill="rgb(84, 122, 97)"/></g><text x="1336.00" y="279.16" font-family="&quot;Avenir Next&quot;, &quot;PingFang SC&quot;, &quot;Noto Sans SC&quot;, sans-serif" font-size="9.00" font-weight="500" fill="rgb(84, 122, 97)">演示在线</text></g></g><g data-name="dependency-row"><line x1="1155.00" y1="342.79" x2="1379.00" y2="342.79" stroke="rgb(231, 232, 225)" stroke-width="1.00"/><g data-name="span"><text x="1155.00" y="324.09" font-family="&quot;Avenir Next&quot;, &quot;PingFang SC&quot;, &quot;Noto Sans SC&quot;, sans-serif" font-size="11.00" font-weight="400" fill="rgb(39, 43, 40)">FFmpeg</text></g><g data-name="tag ready"><rect x="1313.16" y="310.29" width="65.84" height="19.50" rx="4.00" fill="rgb(237, 243, 238)"/><g data-name="tag-dot"><rect x="1320.16" y="318.04" width="4.00" height="4.00" rx="2.00" fill="rgb(84, 122, 97)"/></g><text x="1329.16" y="323.66" font-family="&quot;Avenir Next&quot;, &quot;PingFang SC&quot;, &quot;Noto Sans SC&quot;, sans-serif" font-size="9.00" font-weight="500" fill="rgb(84, 122, 97)">可用 · 演示</text></g></g><g data-name="dependency-row"><line x1="1155.00" y1="387.29" x2="1379.00" y2="387.29" stroke="rgb(231, 232, 225)" stroke-width="1.00"/><g data-name="span"><text x="1155.00" y="368.59" font-family="&quot;Avenir Next&quot;, &quot;PingFang SC&quot;, &quot;Noto Sans SC&quot;, sans-serif" font-size="11.00" font-weight="400" fill="rgb(39, 43, 40)">Whisper</text></g><g data-name="tag ready"><rect x="1309.62" y="354.79" width="69.38" height="19.50" rx="4.00" fill="rgb(237, 243, 238)"/><g data-name="tag-dot"><rect x="1316.62" y="362.54" width="4.00" height="4.00" rx="2.00" fill="rgb(84, 122, 97)"/></g><text x="1325.62" y="368.16" font-family="&quot;Avenir Next&quot;, &quot;PingFang SC&quot;, &quot;Noto Sans SC&quot;, sans-serif" font-size="9.00" font-weight="500" fill="rgb(84, 122, 97)">small · 演示</text></g></g><g data-name="dependency-row"><line x1="1155.00" y1="431.79" x2="1379.00" y2="431.79" stroke="rgb(231, 232, 225)" stroke-width="1.00"/><g data-name="span"><text x="1155.00" y="413.09" font-family="&quot;Avenir Next&quot;, &quot;PingFang SC&quot;, &quot;Noto Sans SC&quot;, sans-serif" font-size="11.00" font-weight="400" fill="rgb(39, 43, 40)">Chrome 发布插件</text></g><g data-name="tag ready"><rect x="1304.16" y="399.29" width="74.84" height="19.50" rx="4.00" fill="rgb(237, 243, 238)"/><g data-name="tag-dot"><rect x="1311.16" y="407.04" width="4.00" height="4.00" rx="2.00" fill="rgb(84, 122, 97)"/></g><text x="1320.16" y="412.66" font-family="&quot;Avenir Next&quot;, &quot;PingFang SC&quot;, &quot;Noto Sans SC&quot;, sans-serif" font-size="9.00" font-weight="500" fill="rgb(84, 122, 97)">已配对 · 演示</text></g></g><g data-name="div"><g data-name="button full"><rect x="1155.00" y="451.79" width="224.00" height="36.00" rx="6.00" fill="rgb(255, 255, 255)"/><rect x="1155.50" y="452.29" width="223.00" height="35.00" rx="6.00" fill="none" stroke="rgb(221, 223, 213)" stroke-width="1.00"/><svg viewBox="0 0 24 24" aria-hidden="true" x="1223.00" y="462.29" width="15.00" height="15.00" color="rgb(39, 43, 40)" fill="none" stroke="rgb(39, 43, 40)" stroke-width="1.6px" stroke-linecap="round" stroke-linejoin="round"><path d="M20 8a8 8 0 1 0 0 8M20 3v5h-5"></path></svg><text x="1245.00" y="473.89" font-family="&quot;Avenir Next&quot;, &quot;PingFang SC&quot;, &quot;Noto Sans SC&quot;, sans-serif" font-size="11.00" font-weight="500" fill="rgb(39, 43, 40)">演示连接检查</text></g></g></g><g data-name="notice "><rect x="1132.00" y="530.79" width="270.00" height="61.19" rx="6.00" fill="rgb(239, 241, 233)"/><rect x="1132.50" y="531.29" width="269.00" height="60.19" rx="6.00" fill="none" stroke="rgb(228, 232, 218)" stroke-width="1.00"/><svg viewBox="0 0 24 24" aria-hidden="true" x="1147.00" y="544.79" width="16.00" height="16.00" color="rgb(127, 137, 111)" fill="none" stroke="rgb(127, 137, 111)" stroke-width="1.6px" stroke-linecap="round" stroke-linejoin="round"><circle cx="12" cy="12" r="9"></circle><path d="M12 11v6M12 7h.01"></path></svg><g data-name="span"><text x="1172.00" y="556.64" font-family="&quot;Avenir Next&quot;, &quot;PingFang SC&quot;, &quot;Noto Sans SC&quot;, sans-serif" font-size="11.00" font-weight="400" fill="rgb(127, 137, 111)">原型设置只在当前页面会话保留；刷新后恢</text><text x="1172.00" y="574.23" font-family="&quot;Avenir Next&quot;, &quot;PingFang SC&quot;, &quot;Noto Sans SC&quot;, sans-serif" font-size="11.00" font-weight="400" fill="rgb(127, 137, 111)">复示例值，不保存真实凭据。</text></g></g></g></g></g></g><g data-name="app-footer"><g data-name="span"><text x="258.00" y="1095.59" font-family="&quot;Avenir Next&quot;, &quot;PingFang SC&quot;, &quot;Noto Sans SC&quot;, sans-serif" font-size="8.00" font-weight="400" fill="rgb(167, 173, 158)" letter-spacing="1px">JINGFLOW STUDIO</text></g><g data-name="span"><text x="759.16" y="1095.98" font-family="&quot;Avenir Next&quot;, &quot;PingFang SC&quot;, &quot;Noto Sans SC&quot;, sans-serif" font-size="9.00" font-weight="400" fill="rgb(167, 173, 158)" letter-spacing="0.2px">从素材到成片，每一步都清晰。</text></g><g data-name="span"><text x="1301.38" y="1095.59" font-family="&quot;Avenir Next&quot;, &quot;PingFang SC&quot;, &quot;Noto Sans SC&quot;, sans-serif" font-size="8.00" font-weight="400" fill="rgb(167, 173, 158)" letter-spacing="1px">DESIGN PREVIEW / 01</text></g></g></g><g data-name="overlay-root"></g></g></svg>